<?xml version='1.0' encoding='utf-8'?>
<!DOCTYPE svg PUBLIC '-//W3C//DTD SVG 1.1//EN' 'http://www.w3.org/Graphics/SVG/1.1/DTD/svg11.dtd'>
<svg version="1.1" xmlns="http://www.w3.org/2000/svg" viewBox="0 0 512 512" xmlns:xlink="http://www.w3.org/1999/xlink" enable-background="new 0 0 512 512">
  <g>
    <g>
      <path d="m376.1,195.6v-64.5c0-66.2-53.8-120.1-120.1-120.1s-120.1,53.9-120.1,120.1v64.5c-30.4,3.1-54.3,28.9-54.3,60.2v184.7c0,33.4 27.2,60.5 60.5,60.5h227.8c33.4,0 60.5-27.1 60.5-60.5v-184.7c-5.68434e-14-31.3-23.8-57.1-54.3-60.2zm-199.4-64.5c0-43.7 35.6-79.3 79.3-79.3s79.3,35.6 79.3,79.3v64.1h-158.6v-64.1zm212.9,309.4c0,10.8-8.8,19.7-19.7,19.7h-227.8c-10.9,0-19.7-8.8-19.7-19.7v-184.7c0-10.9 8.8-19.7 19.7-19.7h227.8c10.9,0 19.7,8.8 19.7,19.7v184.7z"/>
      <path d="m256,349c-11.3,0-20.4,9.1-20.4,20.4v40.1c0,11.3 9.1,20.4 20.4,20.4 11.3,0 20.4-9.1 20.4-20.4v-40.1c0-11.2-9.1-20.4-20.4-20.4z"/>
    </g>
  </g>
</svg>
