<?xml version="1.0"?>
<svg xmlns="http://www.w3.org/2000/svg" xmlns:xlink="http://www.w3.org/1999/xlink" version="1.1" id="Capa_1" x="0px" y="0px" viewBox="0 0 486.225 486.225" style="enable-background:new 0 0 486.225 486.225;" xml:space="preserve" width="512px" height="512px"><g><g>
	<g id="XMLID_28_">
		<g id="XMLID_44_">
			<path d="M421.602,390.4c-12.5-84.4-45.2-167.6-122.5-194.4c30-18.7,50-52,50-90c0-58.5-47.4-106-106-106     c-58.5,0-106,47.4-106,106c0,38,20,71.3,50,90c-77.3,26.8-110,110-122.5,194.4c-2.3,15.7,10,29.8,25.9,29.8h83.7l0.2-0.2     l-12.3-12.3c-19-19-19-49.8,0-68.8c9.2-9.2,21.4-14.2,34.4-14.2s25.2,5.1,34.4,14.2l12.3,12.3l12.3-12.3     c9.2-9.2,21.4-14.2,34.4-14.2s25.2,5.1,34.4,14.2c9.2,9.2,14.2,21.4,14.2,34.4s-5.1,25.2-14.2,34.4l-12.4,12.4l0.2,0.2h83.7     C411.602,420.3,424.002,406.2,421.602,390.4z M243.102,71.5c-19,0-34.5,15.5-34.5,34.5c0,8.7-7.1,15.8-15.8,15.8     s-15.8-7.1-15.8-15.8c0-36.5,29.7-66.2,66.2-66.2c8.7,0,15.8,7.1,15.8,15.8C258.902,64.4,251.802,71.5,243.102,71.5z" data-original="#000000" class="active-path" data-old_color="#000000" fill="#2A4239"/>
		</g>
		<g id="XMLID_38_">
			<path d="M276.202,359.8l-33.1,33.1l-33.1-33.1c-7.5-7.5-19.7-7.5-27.3,0l0,0c-7.5,7.5-7.5,19.7,0,27.3l33.1,33.1l-33.1,33.1     c-7.5,7.5-7.5,19.7,0,27.3c7.5,7.5,19.7,7.5,27.3,0l33.1-33.1l33.1,33.1c7.5,7.5,19.7,7.5,27.3,0l0,0c7.5-7.5,7.5-19.7,0-27.3     l-33.1-33.2l33.1-33.1c7.5-7.5,7.5-19.7,0-27.3C295.902,352.2,283.702,352.2,276.202,359.8z" data-original="#000000" class="active-path" data-old_color="#000000" fill="#2A4239"/>
		</g>
	</g>
</g></g> </svg>
